<mxfile host="app.diagrams.net" agent="Mozilla/5.0 (Macintosh; Intel Mac OS X 10_15_7) AppleWebKit/537.36 (KHTML, like Gecko) Chrome/133.0.0.0 Safari/537.36" version="26.1.0">
  <diagram name="Page-1" id="hIMzLQnpSyQS0QaI6Of-">
    <mxGraphModel dx="1834" dy="819" grid="1" gridSize="10" guides="1" tooltips="1" connect="1" arrows="1" fold="1" page="0" pageScale="1" pageWidth="850" pageHeight="1400" math="0" shadow="0">
      <root>
        <mxCell id="0" />
        <mxCell id="1" parent="0" />
        <mxCell id="_PqFZ1HzRURmT83oFa9N-1" value="" style="shadow=0;dashed=0;html=1;strokeColor=none;fillColor=#21C0A5;labelPosition=center;verticalLabelPosition=bottom;verticalAlign=top;align=center;outlineConnect=0;shape=mxgraph.veeam.vm_linux;labelBackgroundColor=none;fontColor=#5C5C5C;rounded=1;" parent="1" vertex="1">
          <mxGeometry x="446" y="80" width="104" height="100" as="geometry" />
        </mxCell>
        <mxCell id="_PqFZ1HzRURmT83oFa9N-2" value="Cloud" style="html=1;whiteSpace=wrap;strokeColor=none;fillColor=#21C0A5;labelPosition=center;verticalLabelPosition=middle;verticalAlign=top;align=center;fontSize=12;outlineConnect=0;spacingTop=-6;fontColor=#5C5C5C;sketch=0;shape=mxgraph.sitemap.cloud;labelBackgroundColor=none;rounded=1;" parent="1" vertex="1">
          <mxGeometry x="430" y="10" width="120" height="70" as="geometry" />
        </mxCell>
        <mxCell id="_PqFZ1HzRURmT83oFa9N-3" value="" style="rounded=1;whiteSpace=wrap;html=1;fillColor=none;strokeColor=#FF0000;labelBackgroundColor=none;fontColor=#5C5C5C;strokeWidth=2;dashed=1;" parent="1" vertex="1">
          <mxGeometry x="210" y="10" width="400" height="190" as="geometry" />
        </mxCell>
        <mxCell id="_PqFZ1HzRURmT83oFa9N-4" value="&lt;h1 style=&quot;margin-top: 0px;&quot;&gt;Attacking&lt;br&gt;Infrastructure&lt;/h1&gt;" style="text;html=1;whiteSpace=wrap;overflow=hidden;rounded=1;fontColor=#5C5C5C;labelBackgroundColor=none;" parent="1" vertex="1">
          <mxGeometry x="230" width="180" height="120" as="geometry" />
        </mxCell>
        <mxCell id="_PqFZ1HzRURmT83oFa9N-5" value="&lt;font face=&quot;Verdana&quot;&gt;&lt;b&gt;Kali Machine with&lt;br&gt;C2(Cobaltstrike/Sliver)&lt;br&gt;Phishing Infra(Evilginx) and&lt;br&gt;Other arsenals from kali&lt;/b&gt;&lt;/font&gt;" style="text;html=1;align=center;verticalAlign=middle;whiteSpace=wrap;rounded=1;labelBackgroundColor=none;fontColor=#5C5C5C;" parent="1" vertex="1">
          <mxGeometry x="240" y="80" width="160" height="80" as="geometry" />
        </mxCell>
        <mxCell id="_PqFZ1HzRURmT83oFa9N-6" value="" style="endArrow=classic;html=1;rounded=1;strokeColor=#CC6600;fontColor=#5C5C5C;fillColor=#21C0A5;exitX=0.5;exitY=1;exitDx=0;exitDy=0;curved=0;strokeWidth=3;shadow=1;" parent="1" source="_PqFZ1HzRURmT83oFa9N-3" edge="1">
          <mxGeometry width="50" height="50" relative="1" as="geometry">
            <mxPoint x="400" y="450" as="sourcePoint" />
            <mxPoint x="410" y="330" as="targetPoint" />
          </mxGeometry>
        </mxCell>
        <mxCell id="_PqFZ1HzRURmT83oFa9N-7" value="" style="sketch=0;outlineConnect=0;fontColor=#ffffff;fillColor=#d80073;strokeColor=#A50040;dashed=0;verticalLabelPosition=bottom;verticalAlign=top;align=center;html=1;fontSize=12;fontStyle=0;aspect=fixed;pointerEvents=1;shape=mxgraph.aws4.router;rounded=1;" parent="1" vertex="1">
          <mxGeometry x="371" y="330" width="78" height="78" as="geometry" />
        </mxCell>
        <mxCell id="_PqFZ1HzRURmT83oFa9N-9" value="" style="sketch=0;aspect=fixed;pointerEvents=1;shadow=0;dashed=0;html=1;strokeColor=#A50040;labelPosition=center;verticalLabelPosition=bottom;verticalAlign=top;align=center;fillColor=#d80073;shape=mxgraph.mscae.enterprise.windows_server;rounded=1;fontColor=#ffffff;" parent="1" vertex="1">
          <mxGeometry x="80" y="510" width="39" height="50" as="geometry" />
        </mxCell>
        <mxCell id="_PqFZ1HzRURmT83oFa9N-10" value="" style="sketch=0;aspect=fixed;pointerEvents=1;shadow=0;dashed=0;html=1;strokeColor=#A50040;labelPosition=center;verticalLabelPosition=bottom;verticalAlign=top;align=center;fillColor=#d80073;shape=mxgraph.mscae.enterprise.windows_server;rounded=1;fontColor=#ffffff;" parent="1" vertex="1">
          <mxGeometry x="640" y="510" width="39" height="50" as="geometry" />
        </mxCell>
        <mxCell id="_PqFZ1HzRURmT83oFa9N-11" value="" style="sketch=0;pointerEvents=1;shadow=0;dashed=0;html=1;strokeColor=#006EAF;fillColor=#1ba1e2;labelPosition=center;verticalLabelPosition=bottom;verticalAlign=top;outlineConnect=0;align=center;shape=mxgraph.office.devices.workstation_pc;rounded=1;fontColor=#ffffff;" parent="1" vertex="1">
          <mxGeometry x="-80" y="600" width="53" height="59" as="geometry" />
        </mxCell>
        <mxCell id="_PqFZ1HzRURmT83oFa9N-12" value="" style="sketch=0;pointerEvents=1;shadow=0;dashed=0;html=1;strokeColor=#006EAF;fillColor=#1ba1e2;labelPosition=center;verticalLabelPosition=bottom;verticalAlign=top;outlineConnect=0;align=center;shape=mxgraph.office.devices.workstation_pc;rounded=1;fontColor=#ffffff;" parent="1" vertex="1">
          <mxGeometry x="-80" y="399" width="53" height="59" as="geometry" />
        </mxCell>
        <mxCell id="_PqFZ1HzRURmT83oFa9N-13" value="" style="sketch=0;pointerEvents=1;shadow=0;dashed=0;html=1;strokeColor=#006EAF;fillColor=#1ba1e2;labelPosition=center;verticalLabelPosition=bottom;verticalAlign=top;outlineConnect=0;align=center;shape=mxgraph.office.devices.workstation_pc;rounded=1;fontColor=#ffffff;" parent="1" vertex="1">
          <mxGeometry x="790" y="399" width="53" height="59" as="geometry" />
        </mxCell>
        <mxCell id="_PqFZ1HzRURmT83oFa9N-14" value="" style="sketch=0;pointerEvents=1;shadow=0;dashed=0;html=1;strokeColor=#006EAF;fillColor=#1ba1e2;labelPosition=center;verticalLabelPosition=bottom;verticalAlign=top;outlineConnect=0;align=center;shape=mxgraph.office.devices.workstation_pc;rounded=1;fontColor=#ffffff;" parent="1" vertex="1">
          <mxGeometry x="790" y="600" width="53" height="59" as="geometry" />
        </mxCell>
        <mxCell id="_PqFZ1HzRURmT83oFa9N-15" value="" style="rounded=1;whiteSpace=wrap;html=1;strokeColor=#007FFF;fontColor=#5C5C5C;fillColor=none;strokeWidth=2;dashed=1;" parent="1" vertex="1">
          <mxGeometry x="-120" y="400" width="320" height="280" as="geometry" />
        </mxCell>
        <mxCell id="_PqFZ1HzRURmT83oFa9N-16" value="" style="rounded=1;whiteSpace=wrap;html=1;strokeColor=#006658;fontColor=#5C5C5C;fillColor=none;dashed=1;strokeWidth=2;" parent="1" vertex="1">
          <mxGeometry x="600" y="399" width="400" height="281" as="geometry" />
        </mxCell>
        <mxCell id="_PqFZ1HzRURmT83oFa9N-17" value="&lt;font&gt;avengershq.corp&lt;/font&gt;" style="text;html=1;align=center;verticalAlign=middle;whiteSpace=wrap;rounded=0;fontColor=#FF6666;fontStyle=1;fontFamily=Verdana;" parent="1" vertex="1">
          <mxGeometry x="20" y="400" width="70" height="30" as="geometry" />
        </mxCell>
        <mxCell id="_PqFZ1HzRURmT83oFa9N-18" value="&lt;font face=&quot;Verdana&quot;&gt;dragonshield.corp&lt;/font&gt;" style="text;html=1;align=center;verticalAlign=middle;whiteSpace=wrap;rounded=0;fontColor=#FF6666;fontStyle=1" parent="1" vertex="1">
          <mxGeometry x="679" y="400" width="60" height="30" as="geometry" />
        </mxCell>
        <mxCell id="_PqFZ1HzRURmT83oFa9N-19" value="&lt;font face=&quot;Verdana&quot;&gt;DC&lt;/font&gt;" style="text;html=1;align=center;verticalAlign=middle;whiteSpace=wrap;rounded=0;fontColor=#5C5C5C;fontStyle=1" parent="1" vertex="1">
          <mxGeometry x="69.5" y="560" width="60" height="30" as="geometry" />
        </mxCell>
        <mxCell id="_PqFZ1HzRURmT83oFa9N-20" value="&lt;font face=&quot;Verdana&quot;&gt;DC&lt;/font&gt;" style="text;html=1;align=center;verticalAlign=middle;whiteSpace=wrap;rounded=0;fontColor=#5C5C5C;fontStyle=1" parent="1" vertex="1">
          <mxGeometry x="629.5" y="560" width="60" height="30" as="geometry" />
        </mxCell>
        <mxCell id="_PqFZ1HzRURmT83oFa9N-22" value="" style="endArrow=classic;startArrow=classic;html=1;rounded=1;strokeColor=#006658;fontColor=#5C5C5C;fillColor=#21C0A5;exitX=1.003;exitY=0.534;exitDx=0;exitDy=0;exitPerimeter=0;entryX=0.003;entryY=0.543;entryDx=0;entryDy=0;entryPerimeter=0;" parent="1" source="_PqFZ1HzRURmT83oFa9N-15" target="_PqFZ1HzRURmT83oFa9N-16" edge="1">
          <mxGeometry width="50" height="50" relative="1" as="geometry">
            <mxPoint x="370" y="600" as="sourcePoint" />
            <mxPoint x="420" y="550" as="targetPoint" />
          </mxGeometry>
        </mxCell>
        <mxCell id="_PqFZ1HzRURmT83oFa9N-23" value="&lt;font style=&quot;color: rgb(255, 102, 102);&quot; face=&quot;Verdana&quot;&gt;&lt;b&gt;Bi-Directional Trust&lt;/b&gt;&lt;/font&gt;" style="text;html=1;align=center;verticalAlign=middle;whiteSpace=wrap;rounded=0;fontColor=#5C5C5C;" parent="1" vertex="1">
          <mxGeometry x="360" y="510" width="120" height="30" as="geometry" />
        </mxCell>
        <mxCell id="_PqFZ1HzRURmT83oFa9N-25" value="" style="endArrow=classic;html=1;rounded=0;strokeColor=#006658;fontColor=#5C5C5C;fillColor=#21C0A5;entryX=-0.009;entryY=0.119;entryDx=0;entryDy=0;entryPerimeter=0;curved=1;strokeWidth=2;" parent="1" source="_PqFZ1HzRURmT83oFa9N-7" target="_PqFZ1HzRURmT83oFa9N-16" edge="1">
          <mxGeometry width="50" height="50" relative="1" as="geometry">
            <mxPoint x="370" y="520" as="sourcePoint" />
            <mxPoint x="420" y="470" as="targetPoint" />
          </mxGeometry>
        </mxCell>
        <mxCell id="_PqFZ1HzRURmT83oFa9N-26" value="" style="endArrow=classic;html=1;rounded=0;strokeColor=#006658;fontColor=#5C5C5C;fillColor=#21C0A5;entryX=1.006;entryY=0.105;entryDx=0;entryDy=0;entryPerimeter=0;curved=1;strokeWidth=2;" parent="1" source="_PqFZ1HzRURmT83oFa9N-7" target="_PqFZ1HzRURmT83oFa9N-15" edge="1">
          <mxGeometry width="50" height="50" relative="1" as="geometry">
            <mxPoint x="369" y="390" as="sourcePoint" />
            <mxPoint x="484" y="440" as="targetPoint" />
          </mxGeometry>
        </mxCell>
        <mxCell id="_PqFZ1HzRURmT83oFa9N-27" value="&lt;font style=&quot;color: rgb(255, 102, 102);&quot; face=&quot;Verdana&quot;&gt;&lt;b&gt;Router&lt;/b&gt;&lt;/font&gt;" style="text;html=1;align=center;verticalAlign=middle;whiteSpace=wrap;rounded=0;fontColor=#5C5C5C;" parent="1" vertex="1">
          <mxGeometry x="410" y="340" width="120" height="30" as="geometry" />
        </mxCell>
        <mxCell id="_PqFZ1HzRURmT83oFa9N-29" value="&lt;font face=&quot;Verdana&quot; color=&quot;#ff6666&quot;&gt;&lt;b&gt;all kind of AD vulns will be configured&lt;/b&gt;&lt;/font&gt;" style="text;html=1;align=center;verticalAlign=middle;whiteSpace=wrap;rounded=0;fontColor=#5C5C5C;" parent="1" vertex="1">
          <mxGeometry x="39.5" y="590" width="120" height="30" as="geometry" />
        </mxCell>
        <mxCell id="_PqFZ1HzRURmT83oFa9N-30" value="&lt;font face=&quot;Verdana&quot; color=&quot;#ff6666&quot;&gt;&lt;b&gt;all kind of AD vulns will be configured&lt;/b&gt;&lt;/font&gt;" style="text;html=1;align=center;verticalAlign=middle;whiteSpace=wrap;rounded=0;fontColor=#5C5C5C;" parent="1" vertex="1">
          <mxGeometry x="600" y="590" width="120" height="30" as="geometry" />
        </mxCell>
        <mxCell id="_PqFZ1HzRURmT83oFa9N-31" value="&lt;font&gt;Workstation 1&lt;/font&gt;" style="text;html=1;align=center;verticalAlign=middle;whiteSpace=wrap;rounded=0;fontColor=#FF6666;fontStyle=1;fontFamily=Verdana;" parent="1" vertex="1">
          <mxGeometry x="-88.5" y="458" width="98.5" height="30" as="geometry" />
        </mxCell>
        <mxCell id="_PqFZ1HzRURmT83oFa9N-33" value="&lt;font&gt;Workstation 2&lt;/font&gt;" style="text;html=1;align=center;verticalAlign=middle;whiteSpace=wrap;rounded=0;fontColor=#FF6666;fontStyle=1;fontFamily=Verdana;" parent="1" vertex="1">
          <mxGeometry x="-88.5" y="570" width="98.5" height="30" as="geometry" />
        </mxCell>
        <mxCell id="_PqFZ1HzRURmT83oFa9N-34" value="&lt;font&gt;Workstation 1&lt;/font&gt;" style="text;html=1;align=center;verticalAlign=middle;whiteSpace=wrap;rounded=0;fontColor=#FF6666;fontStyle=1;fontFamily=Verdana;" parent="1" vertex="1">
          <mxGeometry x="770" y="458" width="98.5" height="30" as="geometry" />
        </mxCell>
        <mxCell id="_PqFZ1HzRURmT83oFa9N-35" value="&lt;font&gt;Workstation 2&lt;/font&gt;" style="text;html=1;align=center;verticalAlign=middle;whiteSpace=wrap;rounded=0;fontColor=#FF6666;fontStyle=1;fontFamily=Verdana;" parent="1" vertex="1">
          <mxGeometry x="767.25" y="570" width="98.5" height="30" as="geometry" />
        </mxCell>
        <mxCell id="_PqFZ1HzRURmT83oFa9N-36" value="" style="sketch=0;aspect=fixed;pointerEvents=1;shadow=0;dashed=0;html=1;strokeColor=#A50040;labelPosition=center;verticalLabelPosition=bottom;verticalAlign=top;align=center;fillColor=#d80073;shape=mxgraph.mscae.enterprise.application_server;rounded=1;fontColor=#ffffff;" parent="1" vertex="1">
          <mxGeometry x="940" y="520" width="43" height="50" as="geometry" />
        </mxCell>
        <mxCell id="_PqFZ1HzRURmT83oFa9N-37" value="&lt;font&gt;DVWA&lt;/font&gt;" style="text;html=1;align=center;verticalAlign=middle;whiteSpace=wrap;rounded=0;fontColor=#FF6666;fontStyle=1;fontFamily=Verdana;" parent="1" vertex="1">
          <mxGeometry x="901.5" y="570" width="98.5" height="30" as="geometry" />
        </mxCell>
        <mxCell id="_PqFZ1HzRURmT83oFa9N-38" value="" style="endArrow=classic;html=1;rounded=0;strokeColor=#006658;fontColor=#5C5C5C;fillColor=#21C0A5;curved=1;strokeWidth=2;" parent="1" edge="1">
          <mxGeometry width="50" height="50" relative="1" as="geometry">
            <mxPoint x="615" y="670" as="sourcePoint" />
            <mxPoint x="430" y="790" as="targetPoint" />
          </mxGeometry>
        </mxCell>
        <mxCell id="_PqFZ1HzRURmT83oFa9N-39" value="" style="endArrow=classic;html=1;rounded=0;strokeColor=#006658;fontColor=#5C5C5C;fillColor=#21C0A5;curved=1;strokeWidth=2;exitX=0.975;exitY=0.959;exitDx=0;exitDy=0;exitPerimeter=0;" parent="1" source="_PqFZ1HzRURmT83oFa9N-15" edge="1">
          <mxGeometry width="50" height="50" relative="1" as="geometry">
            <mxPoint x="625" y="680" as="sourcePoint" />
            <mxPoint x="430" y="790" as="targetPoint" />
          </mxGeometry>
        </mxCell>
        <mxCell id="_PqFZ1HzRURmT83oFa9N-40" value="" style="sketch=0;points=[[0,0,0],[0.25,0,0],[0.5,0,0],[0.75,0,0],[1,0,0],[0,1,0],[0.25,1,0],[0.5,1,0],[0.75,1,0],[1,1,0],[0,0.25,0],[0,0.5,0],[0,0.75,0],[1,0.25,0],[1,0.5,0],[1,0.75,0]];outlineConnect=0;fontColor=#232F3E;fillColor=#7AA116;strokeColor=#ffffff;dashed=0;verticalLabelPosition=bottom;verticalAlign=top;align=center;html=1;fontSize=12;fontStyle=0;aspect=fixed;shape=mxgraph.aws4.resourceIcon;resIcon=mxgraph.aws4.elastic_block_store;rounded=1;" parent="1" vertex="1">
          <mxGeometry x="390" y="790" width="78" height="78" as="geometry" />
        </mxCell>
        <mxCell id="G2rxZPcfdrlcwnSySgxY-2" value="&lt;font style=&quot;color: rgb(255, 102, 102);&quot; face=&quot;Verdana&quot;&gt;&lt;b&gt;Elastic&lt;/b&gt;&lt;/font&gt;" style="text;html=1;align=center;verticalAlign=middle;whiteSpace=wrap;rounded=0;fontColor=#5C5C5C;" vertex="1" parent="1">
          <mxGeometry x="438" y="814" width="120" height="30" as="geometry" />
        </mxCell>
      </root>
    </mxGraphModel>
  </diagram>
</mxfile>
